<svg width="88" height="88" viewBox="0 0 88 88" fill="none" xmlns="http://www.w3.org/2000/svg">
<circle cx="44" cy="44" r="43.5" fill="#172427" stroke="white"/>
<g clip-path="url(#clip0_8_28)">
<path d="M65.3785 48.6C65.5923 48.5997 65.8041 48.6417 66.0016 48.7237C66.199 48.8056 66.3783 48.9259 66.5291 49.0775C66.6798 49.2291 66.799 49.4091 66.8799 49.607C66.9607 49.8049 67.0016 50.0169 67 50.2307V57.5999C67.0016 57.8127 66.9611 58.0238 66.881 58.2209C66.8009 58.4181 66.6827 58.5976 66.5331 58.749C66.3836 58.9005 66.2057 59.021 66.0095 59.1036C65.8134 59.1862 65.6029 59.2294 65.39 59.2306C65.1772 59.2294 64.9667 59.1862 64.7706 59.1036C64.5744 59.021 64.3965 58.9005 64.247 58.749C64.0974 58.5976 63.9792 58.4181 63.8991 58.2209C63.819 58.0238 63.7785 57.8127 63.78 57.5999V55.0124C59.5917 62.0412 51.8177 67 43.4411 67C33.2981 67 24.7973 60.7417 21.1104 51.0955C20.9556 50.6936 20.9654 50.2469 21.1376 49.8521C21.3098 49.4574 21.6306 49.1463 22.0304 48.9864C22.8584 48.6621 23.7922 49.0784 24.1142 49.9179C27.3342 58.3405 34.6666 63.7409 43.4411 63.7409C51.1944 63.7409 58.4371 58.7223 61.8112 51.8867L58.4279 51.9097C58.2151 51.91 58.0043 51.8683 57.8076 51.7871C57.6109 51.7059 57.4321 51.5866 57.2815 51.4363C57.1309 51.2859 57.0114 51.1073 56.9299 50.9107C56.8484 50.7141 56.8064 50.5033 56.8064 50.2905C56.8009 49.8608 56.9662 49.4465 57.2659 49.1386C57.5656 48.8307 57.9753 48.6544 58.4049 48.6483L65.3785 48.6ZM44.5635 21C54.7019 21 63.205 27.2583 66.8919 36.9045C67.0467 37.3064 67.037 37.7531 66.8648 38.1479C66.6926 38.5426 66.3718 38.8537 65.9719 39.0136C65.7741 39.0908 65.5629 39.1278 65.3506 39.1227C65.1383 39.1175 64.9291 39.0702 64.7353 38.9836C64.5414 38.8969 64.3667 38.7726 64.2212 38.6178C64.0758 38.4631 63.9626 38.281 63.8881 38.0821C60.6681 29.6595 53.3357 24.2591 44.5612 24.2591C36.8079 24.2591 29.5652 29.2777 26.1911 36.1133L29.5744 36.0903C29.7873 36.09 29.9981 36.1317 30.1948 36.2129C30.3915 36.2941 30.5703 36.4134 30.7209 36.5637C30.8715 36.7141 30.991 36.8927 31.0725 37.0893C31.154 37.2859 31.1959 37.4967 31.1959 37.7095C31.2015 38.1392 31.0362 38.5535 30.7365 38.8614C30.4368 39.1693 30.0271 39.3456 29.5974 39.3517L22.6215 39.4C22.4077 39.4003 22.196 39.3583 21.9985 39.2763C21.8011 39.1944 21.6218 39.0741 21.471 38.9225C21.3203 38.7709 21.201 38.5909 21.1202 38.393C21.0394 38.1951 20.9985 37.9831 21 37.7693V30.4001C21 29.4985 21.7199 28.7694 22.61 28.7694C23.4978 28.7694 24.22 29.4985 24.22 30.4001V32.9876C28.4083 25.9588 36.1823 21 44.5589 21H44.5635Z" fill="white"/>
</g>
<defs>
<clipPath id="clip0_8_28">
<rect width="46" height="46" fill="white" transform="translate(21 21)"/>
</clipPath>
</defs>
</svg>
