<svg width="48" height="50" viewBox="0 0 48 50" fill="none" xmlns="http://www.w3.org/2000/svg">
<path d="M25.3488 1.15578L31.4972 13.7122L45.2446 15.7253C46.9295 15.9727 47.6046 18.0589 46.3828 19.2567L36.4349 29.0297L38.7838 42.8288C39.0739 44.5214 37.3108 45.8091 35.8044 45.0106L23.5077 38.4934L11.2109 45.0106C9.70447 45.8091 7.94141 44.5214 8.23153 42.8288L10.5804 29.0297L0.632531 19.2567C-0.589335 18.0589 0.0857603 15.9727 1.77071 15.7253L15.5181 13.7122L21.6665 1.15578C22.4197 -0.384956 24.5956 -0.384956 25.3488 1.15578Z" fill="url(#paint0_linear_4_26)"/>
<path d="M36.7585 43.6386C36.686 43.6386 36.619 43.6217 36.5465 43.5823L23.5077 36.6715L10.4688 43.5823C10.3963 43.6217 10.3238 43.6386 10.2568 43.6386C10.1285 43.6386 9.98903 43.5711 9.89976 43.4642C9.81049 43.3574 9.78259 43.2393 9.80491 43.0987L12.2933 28.4673L1.74841 18.1039C1.58103 17.9408 1.59219 17.7553 1.63124 17.6316C1.6703 17.5079 1.77072 17.3504 1.99947 17.3167L16.5782 15.1799L23.0948 1.86992C23.2008 1.65624 23.3738 1.61125 23.5077 1.61125C23.6416 1.61125 23.8145 1.65624 23.9205 1.86992L30.4372 15.1799L45.0159 17.3167C45.2502 17.3504 45.345 17.5079 45.3841 17.6316C45.4231 17.7553 45.4343 17.9408 45.2669 18.1039L34.7165 28.4673L37.2048 43.0987C37.2272 43.2449 37.1993 43.363 37.11 43.4642C37.0207 43.5711 36.8812 43.6386 36.7529 43.6386H36.7585Z" fill="url(#paint1_linear_4_26)"/>
<path d="M10.5804 29.0297L0.632504 19.2567C0.147105 18.7787 -0.0314329 18.1601 0.0243601 17.5753C0.0187808 17.5753 0.00762217 17.5753 0.00762217 17.5753C-0.00911572 17.5866 0.00762217 21.326 0.00762217 21.326C0.00762217 21.326 0.0187808 21.326 0.0243601 21.326C-0.0314329 21.9108 0.147105 22.5237 0.632504 23.0017L10.0336 32.2348L10.5804 29.0184V29.0297Z" fill="url(#paint2_linear_4_26)"/>
<path d="M38.8005 43.3968C38.661 44.7857 37.1323 45.7135 35.8044 45.0106L23.5076 38.4934L11.2109 45.0106C9.89414 45.7079 8.38215 44.8082 8.21477 43.4418V46.7482C8.06413 48.3564 9.75466 49.5372 11.2109 48.7612L23.2175 42.3959L23.5746 42.2834L35.7988 48.7612C37.255 49.5316 38.94 48.3564 38.7949 46.7482V43.3968H38.8005Z" fill="url(#paint3_linear_4_26)"/>
<path d="M46.9853 17.5753C47.0467 18.1601 46.8625 18.7787 46.3771 19.2567L36.4293 29.0297L36.976 32.2461L46.3771 23.0129C46.857 22.5406 47.0411 21.9276 46.9853 21.3485L46.9965 21.3372V17.5866H46.9797L46.9853 17.5753Z" fill="url(#paint4_linear_4_26)"/>
<path style="mix-blend-mode:screen" d="M45.3841 17.6316C45.345 17.5079 45.2446 17.3504 45.0159 17.3167L30.4372 15.1799L23.915 1.86992C23.809 1.65624 23.636 1.61125 23.5021 1.61125C23.3682 1.61125 23.1952 1.65624 23.0892 1.86992L16.5726 15.1799L1.99947 17.3167C1.76514 17.3504 1.6703 17.5079 1.63124 17.6316C1.59219 17.7553 1.58103 17.9408 1.74841 18.1039L5.19641 21.489C10.8706 18.8012 18.4696 18.3794 26.0462 20.8817C30.0912 22.22 33.6564 24.2331 36.5521 26.6679L45.2669 18.1039C45.4343 17.9408 45.4231 17.7553 45.3841 17.6316Z" fill="url(#paint5_radial_4_26)"/>
<path d="M45.2669 18.1039C45.4343 17.9408 45.4231 17.7553 45.3841 17.6316C45.345 17.5079 45.2446 17.3504 45.0159 17.3167L30.4372 15.1799L23.915 1.86992C23.809 1.65624 23.636 1.61125 23.5021 1.61125C23.3682 1.61125 23.1952 1.65624 23.0892 1.86992L16.5726 15.1799L1.99947 17.3167C1.76514 17.3504 1.6703 17.5079 1.63124 17.6316C1.59219 17.7553 1.58103 17.9408 1.74841 18.1039L12.2989 28.4673L9.81049 43.0987C9.78817 43.2449 9.81607 43.363 9.90534 43.4642C9.99461 43.5711 10.1341 43.6386 10.2624 43.6386C10.3349 43.6386 10.4019 43.6217 10.4744 43.5823L23.5132 36.6715L36.5521 43.5823C36.6246 43.6217 36.6971 43.6386 36.7641 43.6386C36.8924 43.6386 37.0319 43.5711 37.1212 43.4642C37.2104 43.3574 37.2383 43.2393 37.216 43.0987L34.7276 28.4673L45.2781 18.1039H45.2669ZM36.8087 43.2056C36.8087 43.2056 36.7641 43.2393 36.7585 43.2393L23.5077 36.2217L10.2568 43.2393C10.2568 43.2393 10.2234 43.2281 10.201 43.1662L12.7285 28.3268L2.02179 17.8171C2.02179 17.8171 1.9939 17.789 2.00505 17.7553C2.01621 17.7215 2.02179 17.7215 2.05527 17.7159L16.8404 15.551L23.4519 2.04423C23.4686 2.01612 23.4686 2.01049 23.5021 2.01049C23.5356 2.01049 23.5411 2.01049 23.5523 2.04423L30.1638 15.5454L44.9489 17.7103C44.9824 17.7103 44.9824 17.7103 44.9991 17.7497C45.0103 17.7834 45.0047 17.789 44.9824 17.8115L34.2869 28.3211L36.8087 43.2V43.2056Z" fill="url(#paint6_linear_4_26)"/>
<defs>
<linearGradient id="paint0_linear_4_26" x1="20.4669" y1="1.89241" x2="29.0198" y2="45.9304" gradientUnits="userSpaceOnUse">
<stop stop-color="#FDD733"/>
<stop offset="1" stop-color="#F9AB21"/>
</linearGradient>
<linearGradient id="paint1_linear_4_26" x1="22.3416" y1="5.66553" x2="25.8491" y2="41.5808" gradientUnits="userSpaceOnUse">
<stop stop-color="#FDE265"/>
<stop offset="1" stop-color="#FDD733"/>
</linearGradient>
<linearGradient id="paint2_linear_4_26" x1="5.35817" y1="13.4311" x2="5.15415" y2="44.0603" gradientUnits="userSpaceOnUse">
<stop stop-color="#EA8D07"/>
<stop offset="1" stop-color="#B26500"/>
</linearGradient>
<linearGradient id="paint3_linear_4_26" x1="23.7141" y1="13.5548" x2="23.5157" y2="44.184" gradientUnits="userSpaceOnUse">
<stop stop-color="#EA8D07"/>
<stop offset="1" stop-color="#B26500"/>
</linearGradient>
<linearGradient id="paint4_linear_4_26" x1="41.791" y1="13.6729" x2="41.5869" y2="44.3021" gradientUnits="userSpaceOnUse">
<stop stop-color="#EA8D07"/>
<stop offset="1" stop-color="#B26500"/>
</linearGradient>
<radialGradient id="paint5_radial_4_26" cx="0" cy="0" r="1" gradientUnits="userSpaceOnUse" gradientTransform="translate(26.542 32.2436) scale(24.9699 25.1661)">
<stop stop-color="#FCED97"/>
<stop offset="1"/>
</radialGradient>
<linearGradient id="paint6_linear_4_26" x1="23.2566" y1="2.44348" x2="23.931" y2="43.599" gradientUnits="userSpaceOnUse">
<stop stop-color="#FDD733"/>
<stop offset="1" stop-color="#FBC12A"/>
</linearGradient>
</defs>
</svg>
